PathFileType	4	(X/Y/Z)	8_coords_data.trc
DataRate	CameraRate	NumFrames	NumMarkers	Units	OrigDataRate	OrigDataStartFrame	OrigNumFrames
30.0	30.0	9	21	m	30.0	1	48
Frame#	Time	THUMB_TIP	THUMB_IP	THUMB_MCP	THUMB_CMC	INDEX_TIP	INDEX_DIP	INDEX_PIP	INDEX_MCP	MIDDLE_TIP	MIDDLE_DIP	MIDDLE_PIP	MIDDLE_MCP	RING_TIP	RING_DIP	RING_PIP	RING_MCP	PINKY_TIP	PINKY_DIP	PINKY_PIP	PINKY_MCP	WRIST
X1	Y1	Z1	X2	Y2	Z2	X3	Y3	Z3	X4	Y4	Z4	X5	Y5	Z5	X6	Y6	Z6	X7	Y7	Z7	X8	Y8	Z8	X9	Y9	Z9	X10	Y10	Z10	X11	Y11	Z11	X12	Y12	Z12	X13	Y13	Z13	X14	Y14	Z14	X15	Y15	Z15	X16	Y16	Z16	X17	Y17	Z17	X18	Y18	Z18	X19	Y19	Z19	X20	Y20	Z20	X21	Y21	Z21
0	-2.749317978547796e-18	0.5564902458231002	-0.010888390108908297	-0.11694645043430807	0.5335450300499998	-0.0111904252441416	-0.11814053916758871	0.5043873787596906	-0.005662274284541802	-0.10875486294258468	0.4755220757201634	-0.01435853652209318	-0.07587539665232979	0.5609584390809703	0.025560443734576	-0.16043232204212826	0.5495085751566586	0.026714732139587305	-0.1464477507439868	0.5337230932682051	0.03041212366905488	-0.12723427395223658	0.5110827996510565	0.0338316160452502	-0.09132661083113591	0.4975443977600375	-0.0017233565850818255	-0.0942020507425419	0.510524858187528	-0.006981228549007734	-0.10568518748740902	0.5362450762999142	0.005924543293359452	-0.11030265252832167	0.5221803476179718	0.027759581390573662	-0.07394935227378419	0.5062324454793153	-0.006824852280724492	-0.09683281857995962	0.5220398985579239	-0.0060953811675362735	-0.10546950191690185	0.5459147821857189	-0.004968548905763037	-0.0984766369952067	0.5322020433939912	0.013673814499516435	-0.06532329756317728	0.5937270909435016	-0.00024455924239308313	-0.10419271277130854	0.5801302823066039	-0.001585472959096501	-0.09388112970681556	0.5628032264343957	-0.001662045447096916	-0.08202451592144416	0.5328928855276444	-0.003746205789742496	-0.0619767920230046	0.4622830810018609	-0.023011742144276925	-0.051989820119430985
1	0.03333333333333339	0.556072200007924	-0.011525521543897632	-0.11748792141486653	0.53311743166256	-0.011369361666922484	-0.11851467567149271	0.5039360799091638	-0.005868260170190154	-0.10918694324784284	0.4755660890071494	-0.014145099581044929	-0.07577246217172035	0.5607952163005142	0.025441603913113564	-0.1608029726119547	0.5491340402360659	0.0264114314774323	-0.14697993360855793	0.5336504921314542	0.030508439923856878	-0.1276025216843069	0.5107759706064778	0.03374588118967059	-0.09182667322401461	0.4972971253751297	-0.0035716804398910895	-0.09455016439666147	0.5111456339079801	-0.007194479548195409	-0.10564494416177811	0.5365916703164083	0.006019578904638334	-0.11086963939748673	0.522045888453346	0.027641866396635573	-0.074578527061191	0.5071219193196779	-0.0161306374023632	-0.09580883277990487	0.5228402590172423	-0.011323473366578574	-0.10321322141672212	0.5464775261237106	-0.0047381459816301374	-0.09895962929117402	0.5321707229780965	0.013536941630407306	-0.06585287181592425	0.5940764992356192	-0.00011828188263940387	-0.10441722736760589	0.5803827991608232	-0.0014701209944688598	-0.09423611204180499	0.5630513276531522	-0.001891778274184741	-0.08239321039072084	0.5329504645494226	-0.00434087504390257	-0.06267460454692214	0.46228308100186083	-0.023011742144276925	-0.051989820119430985
2	0.06666666666666676	0.5557518563202697	-0.011977572463935049	-0.11788258046449168	0.5327965557127002	-0.01147713120613525	-0.11877909179382035	0.5035918345409798	-0.006020994643738509	-0.1094982063245053	0.4755976311644199	-0.013975190907737023	-0.07569073172042412	0.5606318485843288	0.025327979280601154	-0.16107577002761342	0.5488182037762659	0.02617115180222218	-0.14737442496781322	0.5335636493395854	0.030581827476151124	-0.12788457268418196	0.5105112916243943	0.03369935928086265	-0.09221237211823025	0.4971839194997948	-0.0050663633079700565	-0.09493353051171594	0.5116274094903149	-0.007323949603006197	-0.10562412923275155	0.5368501450382448	0.006133060025259596	-0.11129264344230944	0.5219136647153183	0.027581876486277968	-0.07505733263938713	0.5085015243262538	-0.01994300726325693	-0.0950807937761271	0.5239708601178696	-0.013812154687452782	-0.10201709659967739	0.5469086419160087	-0.0045011328369448655	-0.09930729637081837	0.5321247453308426	0.013473637783306569	-0.06624576499508705	0.5943352998901951	2.5554589841214614e-05	-0.10453525426402777	0.5805708774439222	-0.0013260826337221365	-0.09444993069279722	0.563236146517388	-0.0020042629196319606	-0.08262372275430496	0.5329769140235522	-0.004746324700902749	-0.063188100894645	0.4622830810018609	-0.023011742144276925	-0.051989820119430985
3	0.10000000000000014	0.5555297811518055	-0.012259763591598638	-0.1181464909096413	0.5325774574054875	-0.011519782662635536	-0.11894852761015795	0.5033495375755003	-0.006122877902867585	-0.10970611875608544	0.4756194824829101	-0.0138441096989671	-0.07562802279822989	0.5604832637597578	0.025226623403949988	-0.161258523468577	0.5485643927801181	0.02599103655396673	-0.14764396555776738	0.5334724348830617	0.030640251486924064	-0.1280831005375122	0.5102893505239515	0.03369017778531458	-0.09248986180916985	0.49716426790042284	-0.006162834501246883	-0.09527069667895138	0.5119839470263811	-0.007383597776670636	-0.10560930623870435	0.537033803959726	0.006263364409158645	-0.11158213142595869	0.5217874935666529	0.02757528904915907	-0.07539511982597963	0.5095340337525252	-0.021749390364882104	-0.09462252724957909	0.5248396123580527	-0.015025261752683039	-0.10136977542617892	0.5472218955782292	-0.004262395982081335	-0.0995329038313697	0.53206838974085	0.013476695451007825	-0.06651144520269886	0.5945235230436867	0.0001838405572336388	-0.10456051857380633	0.580709662225007	-0.0011587127976099287	-0.09454179611175867	0.5633703870839364	-0.0020159876615661876	-0.08273389043844454	0.5329816545720498	-0.004981932734243855	-0.06353463115203262	0.46228308100186094	-0.023011742144276925	-0.051989820119430985
4	0.13333333333333353	0.5554011224912634	-0.012390075640293818	-0.1182945306239988	0.5324519239872537	-0.011504170552597115	-0.11903578644971075	0.503200858785596	-0.006177266710711282	-0.10982604812402164	0.4756344291095564	-0.013746640476303584	-0.0755815370935991	0.5603596684719028	0.025143280278054014	-0.16135783536502302	0.548373360207397	0.02586797147382658	-0.1478004301243801	0.5333847896442003	0.030690296168876974	-0.1282020176884816	0.5101095248583882	0.03371542851243847	-0.09266687005329821	0.49719273053838664	-0.00687124041449394	-0.09551265994611763	0.5122313832587791	-0.007385549099099276	-0.10559107306189974	0.5371555087966358	0.006408134917815667	-0.11174995262028303	0.5216702374394036	0.02761624816168451	-0.07560344207461467	0.5102172997982994	-0.022606212549097227	-0.09430831766554054	0.5254152343191367	-0.015584875546413635	-0.1009958891975008	0.5474323666001498	-0.004025730845378495	-0.09964976925451535	0.5320052149961736	0.013537561371463114	-0.06666106521974341	0.5946570888004273	0.0003535936040498511	-0.10450485361705075	0.5808109394036258	-0.0009730477107441349	-0.09452867350122818	0.5634644807392388	-0.001943018033925048	-0.08274005405801688	0.5329713128642735	-0.0050695945185881275	-0.06373282692108978	0.4622830810018609	-0.023011742144276925	-0.051989820119430985
5	0.1666666666666669	0.5553569663885386	-0.012388365071938634	-0.1183404568779447	0.5324094193646834	-0.011437694421265077	-0.11905201214769401	0.5031351659291805	-0.006188126315237907	-0.10987159165110832	0.4756452418137611	-0.013677187529045898	-0.07554801324989391	0.5602679347603168	0.025082827746470526	-0.16137964370319863	0.5482439692793711	0.02579871891814345	-0.14785515650614195	0.5333071178045192	0.03073747540839722	-0.12824625583965404	0.5099701548727	0.033771376446243284	-0.09275234509976144	0.49723651797732116	-0.0072349808286505946	-0.09564113774654526	0.5123871511115166	-0.007340558148777654	-0.10556319242602036	0.5372276391753852	0.00656446600569649	-0.11180899149517848	0.5215639261804956	0.02769773333704706	-0.07569554485662833	0.5106219929706743	-0.02293223313369508	-0.09406415829327403	0.5257465278563783	-0.015766109248124605	-0.10076453984567674	0.5475559902890965	-0.003793986936715399	-0.09967109814328967	0.5319381878247156	0.013646704750476468	-0.06670706693265194	0.594748877758761	0.0005321952532932883	-0.10437829001762533	0.5808839562039245	-0.0007736440272912981	-0.09442546458704965	0.5635270926163073	-0.001800795693597479	-0.08265702098327388	0.5329504411971516	-0.005032938177207735	-0.06380217826430401	0.4622830810018609	-0.023011742144276925	-0.051989820119430985
6	0.20000000000000023	0.5553855732330288	-0.012275736626973566	-0.11829715750629954	0.532437849722115	-0.011328129320520519	-0.11900710543355358	0.5031402757546011	-0.006159794325233281	-0.10985503064176244	0.4756546640556862	-0.0136298917285117	-0.07552386703896552	0.5602126794869045	0.025049651478706414	-0.16132954560065954	0.5481737319176789	0.025780019711454938	-0.14781916797196115	0.5332446663908024	0.03078654570649797	-0.12822152696710593	0.509868742981654	0.03385368186495108	-0.09275612164649605	0.4972791397402147	-0.007313039295222978	-0.0956598824829859	0.5124693327846923	-0.007258366066881683	-0.10552167978923832	0.5372621326713034	0.006729110045158859	-0.11177285054338948	0.521469917721135	0.027811928270393138	-0.07568589107532936	0.5108117550175039	-0.02292276256040804	-0.09385429102087967	0.5258848666823681	-0.01570292920195293	-0.10061264222621635	0.5476092291389827	-0.003569231865656941	-0.09960992401814206	0.531869833740156	0.013793963063686743	-0.06666281901140425	0.5948097454828258	0.0007174650976768948	-0.10418937408843598	0.5809362465860426	-0.0005645634880122596	-0.09424540953367072	0.5635656860422202	-0.0016041436619179672	-0.08249828569609141	0.5329222223467927	-0.004896690665041725	-0.0637627387870941	0.46228308100186083	-0.023011742144276925	-0.051989820119430985
7	0.23333333333333361	0.555473447415636	-0.012074099763572654	-0.1181769711034868	0.5325241712222513	-0.011183515819558232	-0.11891017123879477	0.5032030530221663	-0.006096822485927134	-0.10978780430766144	0.47566540644004635	-0.013598728714893316	-0.07550530988776749	0.5601971027800069	0.02504794804963828	-0.16121298343595208	0.5481592379565212	0.025808673187549425	-0.14770331623960575	0.5332018736409667	0.03084179835758738	-0.12813408690489492	0.5098021606427197	0.033957616817954506	-0.0926886189164241	0.49731668063269047	-0.007170103623604707	-0.09558574352648963	0.5124962876651108	-0.007147968273032768	-0.10546395390932473	0.5372705716292441	0.006898679135622365	-0.11165556925924902	0.5213890734721955	0.027950561751496794	-0.07558973812207559	0.5108384630640133	-0.02268241160583906	-0.09366432059152241	0.5258752138058637	-0.015467743996839145	-0.1005086392880114	0.547608847713447	-0.0033529103299760887	-0.09947910473522137	0.5318023903557095	0.013968848449606885	-0.06654229534845818	0.5948494240247312	0.0009076470563484929	-0.10394557728856857	0.5809743915236908	-0.00034943079416405176	-0.09400056706369586	0.563587072421486	-0.0013673696347791253	-0.08227636329734683	0.5328891018783675	-0.004686170109512555	-0.06363491434768787	0.4622830810018609	-0.023011742144276925	-0.051989820119430985
7	0.2666666666666655	0.5556062184180041	-0.01180584400108764	-0.11799199408705463	0.5326548619023241	-0.011012082576302484	-0.11876992524768276	0.5033098793743123	-0.0060038682876936145	-0.10968093245034505	0.4756801453613385	-0.01357758798023001	-0.07548843958434881	0.5602236289093145	0.02508195563196669	-0.16103534559908422	0.5481964975746612	0.025881597632020026	-0.14751836795869622	0.533182671467843	0.030907314041460743	-0.12799051520407656	0.5097668470047854	0.03407826113193757	-0.0925605793691831	0.4973520907968696	-0.006872253882751478	-0.09544173898776026	0.5124864433965262	-0.007017816041239744	-0.10538810430617113	0.5372642899048529	0.007069823882099202	-0.11147138251780553	0.5213219296127838	0.028105200355587612	-0.0754227763597794	0.5107466174336456	-0.022278305004456267	-0.09349146757517818	0.5257582383013409	-0.015106025615633567	-0.10043478431094988	0.5475717640944239	-0.0031459837153000603	-0.09929133810899188	0.5317379483779315	0.014160802689597407	-0.0663597991502457	0.5948772652821342	0.0011013659920637853	-0.10365368620717902	0.5810046608379114	-0.00013150797899530442	-0.09370226079643446	0.5635978899045504	-0.0011043877073027009	-0.08200312195172677	0.532853311718348	-0.004426886275366915	-0.06343930320617486	0.4622830810018609	-0.023011742144276925	-0.051989820119430985
